<?xml version="1.0" encoding="UTF-8" standalone="no"?>
<!-- Created with Inkscape (http://www.inkscape.org/) -->

<svg
   xmlns:dc="http://purl.org/dc/elements/1.1/"
   xmlns:cc="http://creativecommons.org/ns#"
   xmlns:rdf="http://www.w3.org/1999/02/22-rdf-syntax-ns#"
   xmlns:svg="http://www.w3.org/2000/svg"
   xmlns="http://www.w3.org/2000/svg"
   xmlns:sodipodi="http://sodipodi.sourceforge.net/DTD/sodipodi-0.dtd"
   xmlns:inkscape="http://www.inkscape.org/namespaces/inkscape"
   width="800"
   height="600"
   viewBox="0 0 800.00001 600.00001"
   id="svg2"
   version="1.1"
   inkscape:version="0.91 r13725"
   inkscape:export-filename="/home/abraham/Repositorios/piano/media/img/background.png"
   inkscape:export-xdpi="90"
   inkscape:export-ydpi="90"
   sodipodi:docname="game.svg">
  <defs
     id="defs4" />
  <sodipodi:namedview
     id="base"
     pagecolor="#ffffff"
     bordercolor="#666666"
     borderopacity="1.0"
     inkscape:pageopacity="0.0"
     inkscape:pageshadow="2"
     inkscape:zoom="0.7"
     inkscape:cx="225.6106"
     inkscape:cy="363.38891"
     inkscape:document-units="px"
     inkscape:current-layer="layer1"
     showgrid="false"
     units="px"
     inkscape:object-nodes="true"
     inkscape:snap-object-midpoints="true"
     inkscape:snap-smooth-nodes="false"
     inkscape:window-width="1920"
     inkscape:window-height="1050"
     inkscape:window-x="0"
     inkscape:window-y="30"
     inkscape:window-maximized="1" />
  <metadata
     id="metadata7">
    <rdf:RDF>
      <cc:Work
         rdf:about="">
        <dc:format>image/svg+xml</dc:format>
        <dc:type
           rdf:resource="http://purl.org/dc/dcmitype/StillImage" />
        <dc:title></dc:title>
      </cc:Work>
    </rdf:RDF>
  </metadata>
  <g
     inkscape:label="Capa 1"
     inkscape:groupmode="layer"
     id="layer1"
     transform="translate(0,-452.36216)">
    <rect
       style="fill:#7f29ff;fill-opacity:1;stroke:none;stroke-width:1.31200004;stroke-miterlimit:4;stroke-dasharray:none;stroke-opacity:1"
       id="rect4136-6"
       width="79.999985"
       height="80"
       x="700"
       y="552.36218" />
    <rect
       style="fill:#7fb2ff;fill-opacity:1;stroke:none;stroke-width:1.31200004;stroke-miterlimit:4;stroke-dasharray:none;stroke-opacity:1"
       id="rect4136-66-2"
       width="79.999985"
       height="80"
       x="700"
       y="632.36218" />
    <rect
       style="fill:#55ff55;fill-opacity:1;stroke:none;stroke-width:1.31200004;stroke-miterlimit:4;stroke-dasharray:none;stroke-opacity:1"
       id="rect4136-66-2-9"
       width="79.999985"
       height="80"
       x="700"
       y="712.36218" />
    <rect
       style="fill:#ffff3e;fill-opacity:1;stroke:none;stroke-width:1.31200004;stroke-miterlimit:4;stroke-dasharray:none;stroke-opacity:1"
       id="rect4136-66-2-2"
       width="79.999985"
       height="80"
       x="700"
       y="792.36218" />
    <rect
       style="fill:#ff7f29;fill-opacity:1;stroke:none;stroke-width:1.31200004;stroke-miterlimit:4;stroke-dasharray:none;stroke-opacity:1"
       id="rect4136-66-2-04"
       width="79.999985"
       height="80"
       x="700"
       y="872.36218" />
    <rect
       style="fill:#ff0066;fill-opacity:1;stroke:none;stroke-width:1.31200004;stroke-miterlimit:4;stroke-dasharray:none;stroke-opacity:1"
       id="rect4136-66-2-04-2"
       width="79.999985"
       height="80"
       x="700"
       y="952.36218" />
    <rect
       style="fill:#aa37c7;fill-opacity:1;stroke:none;stroke-width:1.31200004;stroke-miterlimit:4;stroke-dasharray:none;stroke-opacity:1"
       id="rect4136-66-2-04-9"
       width="79.999985"
       height="80"
       x="700"
       y="472.36215" />
    <rect
       style="fill:#7f29ff;fill-opacity:1;stroke:none;stroke-width:1.31200004;stroke-miterlimit:4;stroke-dasharray:none;stroke-opacity:1"
       id="rect4136-6-6"
       width="79.999985"
       height="80"
       x="620"
       y="552.36218" />
    <rect
       style="fill:#7fb2ff;fill-opacity:1;stroke:none;stroke-width:1.31200004;stroke-miterlimit:4;stroke-dasharray:none;stroke-opacity:1"
       id="rect4136-66-2-5"
       width="79.999985"
       height="80"
       x="620"
       y="632.36218" />
    <rect
       style="fill:#55ff55;fill-opacity:1;stroke:none;stroke-width:1.31200004;stroke-miterlimit:4;stroke-dasharray:none;stroke-opacity:1"
       id="rect4136-66-2-9-6"
       width="79.999985"
       height="80"
       x="620"
       y="712.36218" />
    <rect
       style="fill:#ffff3e;fill-opacity:1;stroke:none;stroke-width:1.31200004;stroke-miterlimit:4;stroke-dasharray:none;stroke-opacity:1"
       id="rect4136-66-2-2-5"
       width="79.999985"
       height="80"
       x="620"
       y="792.36218" />
    <rect
       style="fill:#ff7f29;fill-opacity:1;stroke:none;stroke-width:1.31200004;stroke-miterlimit:4;stroke-dasharray:none;stroke-opacity:1"
       id="rect4136-66-2-04-4"
       width="79.999985"
       height="80"
       x="620"
       y="872.36212" />
    <rect
       style="fill:#ff0066;fill-opacity:1;stroke:none;stroke-width:1.31200004;stroke-miterlimit:4;stroke-dasharray:none;stroke-opacity:1"
       id="rect4136-66-2-04-2-9"
       width="79.999985"
       height="80"
       x="620"
       y="952.36212" />
    <rect
       style="fill:#aa37c7;fill-opacity:1;stroke:none;stroke-width:1.31200004;stroke-miterlimit:4;stroke-dasharray:none;stroke-opacity:1"
       id="rect4136-66-2-04-9-0"
       width="79.999985"
       height="80"
       x="620"
       y="472.36212" />
    <rect
       style="fill:#7f29ff;fill-opacity:1;stroke:none;stroke-width:1.31200004;stroke-miterlimit:4;stroke-dasharray:none;stroke-opacity:1"
       id="rect4136-6-4"
       width="79.999985"
       height="80"
       x="540"
       y="552.36212" />
    <rect
       style="fill:#7fb2ff;fill-opacity:1;stroke:none;stroke-width:1.31200004;stroke-miterlimit:4;stroke-dasharray:none;stroke-opacity:1"
       id="rect4136-66-2-1"
       width="79.999985"
       height="80"
       x="540"
       y="632.36212" />
    <rect
       style="fill:#55ff55;fill-opacity:1;stroke:none;stroke-width:1.31200004;stroke-miterlimit:4;stroke-dasharray:none;stroke-opacity:1"
       id="rect4136-66-2-9-8"
       width="79.999985"
       height="80"
       x="540"
       y="712.36212" />
    <rect
       style="fill:#ffff3e;fill-opacity:1;stroke:none;stroke-width:1.31200004;stroke-miterlimit:4;stroke-dasharray:none;stroke-opacity:1"
       id="rect4136-66-2-2-0"
       width="79.999985"
       height="80"
       x="540"
       y="792.36212" />
    <rect
       style="fill:#ff7f29;fill-opacity:1;stroke:none;stroke-width:1.31200004;stroke-miterlimit:4;stroke-dasharray:none;stroke-opacity:1"
       id="rect4136-66-2-04-8"
       width="79.999985"
       height="80"
       x="540"
       y="872.36212" />
    <rect
       style="fill:#ff0066;fill-opacity:1;stroke:none;stroke-width:1.31200004;stroke-miterlimit:4;stroke-dasharray:none;stroke-opacity:1"
       id="rect4136-66-2-04-2-0"
       width="79.999985"
       height="80"
       x="540"
       y="952.36212" />
    <rect
       style="fill:#aa37c7;fill-opacity:1;stroke:none;stroke-width:1.31200004;stroke-miterlimit:4;stroke-dasharray:none;stroke-opacity:1"
       id="rect4136-66-2-04-9-8"
       width="79.999985"
       height="80"
       x="540"
       y="472.36206" />
    <rect
       style="fill:#7f29ff;fill-opacity:1;stroke:none;stroke-width:1.31200004;stroke-miterlimit:4;stroke-dasharray:none;stroke-opacity:1"
       id="rect4136-6-1"
       width="79.999985"
       height="80"
       x="460"
       y="552.36212" />
    <rect
       style="fill:#7fb2ff;fill-opacity:1;stroke:none;stroke-width:1.31200004;stroke-miterlimit:4;stroke-dasharray:none;stroke-opacity:1"
       id="rect4136-66-2-57"
       width="79.999985"
       height="80"
       x="460"
       y="632.36212" />
    <rect
       style="fill:#55ff55;fill-opacity:1;stroke:none;stroke-width:1.31200004;stroke-miterlimit:4;stroke-dasharray:none;stroke-opacity:1"
       id="rect4136-66-2-9-9"
       width="79.999985"
       height="80"
       x="460"
       y="712.36212" />
    <rect
       style="fill:#ffff3e;fill-opacity:1;stroke:none;stroke-width:1.31200004;stroke-miterlimit:4;stroke-dasharray:none;stroke-opacity:1"
       id="rect4136-66-2-2-01"
       width="79.999985"
       height="80"
       x="460"
       y="792.36212" />
    <rect
       style="fill:#ff7f29;fill-opacity:1;stroke:none;stroke-width:1.31200004;stroke-miterlimit:4;stroke-dasharray:none;stroke-opacity:1"
       id="rect4136-66-2-04-5"
       width="79.999985"
       height="80"
       x="460"
       y="872.36206" />
    <rect
       style="fill:#ff0066;fill-opacity:1;stroke:none;stroke-width:1.31200004;stroke-miterlimit:4;stroke-dasharray:none;stroke-opacity:1"
       id="rect4136-66-2-04-2-6"
       width="79.999985"
       height="80"
       x="460"
       y="952.36206" />
    <rect
       style="fill:#aa37c7;fill-opacity:1;stroke:none;stroke-width:1.31200004;stroke-miterlimit:4;stroke-dasharray:none;stroke-opacity:1"
       id="rect4136-66-2-04-9-80"
       width="79.999985"
       height="80"
       x="460"
       y="472.36203" />
    <rect
       style="fill:#7f29ff;fill-opacity:1;stroke:none;stroke-width:1.31200004;stroke-miterlimit:4;stroke-dasharray:none;stroke-opacity:1"
       id="rect4136-6-1-7"
       width="120"
       height="80"
       x="250.00003"
       y="552.36218" />
    <rect
       style="fill:#7fb2ff;fill-opacity:1;stroke:none;stroke-width:1.31200004;stroke-miterlimit:4;stroke-dasharray:none;stroke-opacity:1"
       id="rect4136-66-2-57-0"
       width="120"
       height="80"
       x="250.00003"
       y="632.36218" />
    <rect
       style="fill:#55ff55;fill-opacity:1;stroke:none;stroke-width:1.31200004;stroke-miterlimit:4;stroke-dasharray:none;stroke-opacity:1"
       id="rect4136-66-2-9-9-4"
       width="120"
       height="80"
       x="250.00003"
       y="712.36224" />
    <rect
       style="fill:#ffff3e;fill-opacity:1;stroke:none;stroke-width:1.31200004;stroke-miterlimit:4;stroke-dasharray:none;stroke-opacity:1"
       id="rect4136-66-2-2-01-7"
       width="120"
       height="80"
       x="250.00003"
       y="792.36224" />
    <rect
       style="fill:#ff7f29;fill-opacity:1;stroke:none;stroke-width:1.31200004;stroke-miterlimit:4;stroke-dasharray:none;stroke-opacity:1"
       id="rect4136-66-2-04-5-4"
       width="120"
       height="80"
       x="250.00003"
       y="872.36212" />
    <rect
       style="fill:#ff0066;fill-opacity:1;stroke:none;stroke-width:1.31200004;stroke-miterlimit:4;stroke-dasharray:none;stroke-opacity:1"
       id="rect4136-66-2-04-2-6-6"
       width="120"
       height="80"
       x="250.00003"
       y="952.36212" />
    <rect
       style="fill:#aa37c7;fill-opacity:1;stroke:none;stroke-width:1.31200004;stroke-miterlimit:4;stroke-dasharray:none;stroke-opacity:1"
       id="rect4136-66-2-04-9-80-7"
       width="120"
       height="80"
       x="250.00003"
       y="472.36215" />
    <g
       style="font-style:normal;font-variant:normal;font-weight:normal;font-stretch:normal;font-size:71.13552856px;line-height:125%;font-family:Purisa;-inkscape-font-specification:'Purisa, Normal';text-align:start;letter-spacing:0px;word-spacing:0px;writing-mode:lr-tb;text-anchor:start;fill:#000000;fill-opacity:1;stroke:none;stroke-width:1px;stroke-linecap:butt;stroke-linejoin:miter;stroke-opacity:1"
       id="text4352"
       transform="translate(-0.73054448,2.3085424)">
      <path
         d="m 311.12182,536.58718 q -0.92476,0 -2.63201,0.64022 -1.70726,0.56908 -2.48975,0.56908 -0.92476,0 -1.56498,-0.64021 -0.56908,-0.71136 -0.9959,-2.06294 -0.35567,-1.42271 -0.56908,-3.20109 -0.21341,-1.77839 -0.42681,-4.41041 -0.14227,-2.63201 -0.35568,-5.26403 -0.14227,-2.63201 -0.49795,-6.25992 -0.28454,-3.69905 -0.71136,-7.04242 -0.78249,-7.04242 -1.2093,-12.37758 l -0.49795,-6.4022 -2.77428,0 q -3.55678,0 -3.55678,-1.56498 0,-2.27634 10.95487,-5.12176 4.4104,-1.13817 12.94667,-1.13817 3.27223,0 4.33927,0.35568 1.13816,0.28454 2.27633,1.49385 1.77839,2.06293 1.77839,3.34337 0,3.27223 -1.84952,6.97128 -1.77839,3.69905 -3.62792,6.25992 -1.77838,2.56088 -1.77838,3.05883 0,0.42682 0.99589,0.42682 1.42271,0 4.26814,1.77838 2.91655,1.70726 3.77018,3.12997 1.70725,2.77428 1.70725,8.18058 0,8.46513 -4.76608,14.29824 -4.69494,5.83312 -8.89194,5.83312 -0.71136,0 -1.84952,-0.42682 -1.13817,-0.42681 -1.9918,-0.42681 z m 9.17648,-49.15465 q -1.06703,-1.13817 -5.19289,-1.13817 -2.56088,0 -4.69494,0.35568 -5.26403,0.92476 -5.90425,1.35157 -0.71136,0.49795 -0.71136,2.48975 l 0,1.42271 q 0,4.33927 0.85363,10.17238 0.49795,3.84132 0.92476,4.97949 0.42681,1.06703 1.42271,1.06703 1.56498,0 6.11766,-5.33517 4.62381,-5.33516 6.40219,-9.17648 1.77839,-3.98359 1.77839,-4.55267 0,-0.49795 -0.9959,-1.63612 z m 4.55268,30.87282 q 0,-9.31875 -6.90015,-9.31875 -1.77839,0 -3.62791,0.56908 -1.77839,0.49795 -4.05473,1.56498 -2.2052,0.9959 -3.05882,1.28044 -0.71136,0.28454 -0.9959,0.85363 -0.21341,0.56908 -0.21341,2.48974 0,1.92066 0.21341,6.18879 0.14227,2.56088 0.21341,4.05473 0.14227,1.42271 0.28454,2.84542 0.2134,1.42271 0.56908,2.06293 0.35568,0.64022 0.71136,1.28044 0.42681,0.56908 1.2093,0.78249 0.78249,0.21341 1.56498,0.35568 0.85363,0.0711 2.27634,0.14227 0.35568,0 0.92476,0.0711 0.56909,0 0.78249,0 1.77839,0 2.70315,-0.64022 0.92476,-0.64022 3.2011,-3.34337 2.41861,-2.70315 3.27224,-4.76608 0.92476,-2.13406 0.92476,-6.47333 z"
         id="path4433"
         inkscape:connector-curvature="0" />
    </g>
    <g
       style="font-style:normal;font-variant:normal;font-weight:normal;font-stretch:normal;font-size:71.13552856px;line-height:125%;font-family:Purisa;-inkscape-font-specification:'Purisa, Normal';text-align:start;letter-spacing:0px;word-spacing:0px;writing-mode:lr-tb;text-anchor:start;fill:#000000;fill-opacity:1;stroke:none;stroke-width:1px;stroke-linecap:butt;stroke-linejoin:miter;stroke-opacity:1"
       id="text4352-5"
       transform="translate(-6.8821095,-0.49211238)">
      <path
         d="m 296.1817,619.60125 q 0,-1.06703 1.49384,-3.2011 1.49385,-2.2052 1.49385,-3.2011 0,-1.35157 0.9959,-1.70725 0.78249,-0.28454 2.06293,-3.84132 1.35157,-3.55677 2.34747,-4.76608 0.9959,-1.13817 2.2052,-3.84132 1.20931,-2.70315 4.69495,-11.80849 2.2052,-5.69085 6.11765,-13.72916 3.91246,-8.03832 4.83722,-8.67854 0.85362,-0.49794 1.13817,-0.49794 0.49795,0 1.42271,0.64022 0.78249,0.56908 3.05883,8.03831 2.34747,7.46923 2.34747,9.6033 0.0711,1.42271 1.35157,6.47333 1.28044,4.97949 1.77839,7.89604 0.42681,2.91656 2.2052,9.24762 1.84953,6.25993 1.84953,7.75377 0,1.49385 -0.9959,1.49385 -0.78249,0 -2.2052,-0.78249 -0.64022,-0.35568 -1.06704,-0.78249 -0.42681,-0.42681 -0.71135,-0.92476 -0.21341,-0.49795 -0.49795,-1.56498 -0.28454,-1.06704 -0.49795,-2.06293 -0.2134,-0.9959 -0.71135,-3.2011 -0.42682,-2.2052 -0.92477,-4.26813 l -1.35157,-5.61971 -3.48564,0.42681 q -3.84132,0.56909 -8.46513,0.92476 l -4.97949,0.42682 -2.06293,3.91245 q -5.76197,10.74147 -7.75377,15.57868 -1.63612,3.84132 -3.48564,3.84132 -0.78249,0 -1.49385,-0.42681 -0.71135,-0.42682 -0.71135,-1.35158 z m 30.94395,-29.30784 q 0,-1.92066 -1.63611,-9.24761 -1.56499,-7.3981 -2.34748,-7.3981 -0.56908,0 -3.69904,6.33106 -3.05883,6.25993 -4.97949,11.38169 l -0.85363,2.2052 5.61971,-0.42681 q 5.19289,-0.42682 6.54447,-0.85363 1.35157,-0.49795 1.35157,-1.9918 z"
         id="path4430"
         inkscape:connector-curvature="0" />
    </g>
    <g
       style="font-style:normal;font-variant:normal;font-weight:normal;font-stretch:normal;font-size:71.13552856px;line-height:125%;font-family:Purisa;-inkscape-font-specification:'Purisa, Normal';text-align:start;letter-spacing:0px;word-spacing:0px;writing-mode:lr-tb;text-anchor:start;fill:#000000;fill-opacity:1;stroke:none;stroke-width:1px;stroke-linecap:butt;stroke-linejoin:miter;stroke-opacity:1"
       id="text4352-0"
       transform="translate(6.6507955,-4.3154374)">
      <path
         d="m 305.3766,678.98952 q -2.27634,0 -4.48154,-0.85362 -2.2052,-0.85363 -2.2052,-2.77429 0,-1.2093 1.06703,-1.84952 1.06703,-0.64022 2.41861,-1.06704 1.35157,-0.42681 1.70725,-1.06703 0.35568,-0.56908 2.48974,-0.56908 2.77429,0 6.54447,0.85362 3.77018,0.85363 4.97949,1.84953 2.06293,1.70725 3.12996,8.6074 1.13817,6.90014 1.13817,15.86322 0,4.69494 -1.28044,5.54857 -0.56908,0.49795 -1.28044,0.49795 -0.71135,0 -1.49384,-0.71136 -1.42272,-1.35157 -1.42272,-9.24762 l 0,-8.10945 -2.27633,3.77019 q -4.05473,6.68674 -9.17649,10.45692 -5.12175,3.69905 -9.88783,3.69905 -2.77429,0 -5.1929,-1.35158 -1.84952,-0.9959 -2.77428,-2.34747 -0.85363,-1.42271 -1.77839,-4.90835 -1.06703,-3.69905 -1.06703,-6.75788 0,-2.13406 0.42681,-5.6197 0.71135,-5.69085 1.99179,-8.96308 1.35158,-3.27223 5.1929,-8.96308 2.70315,-3.98359 5.90425,-6.82901 3.20109,-2.84542 5.47743,-3.91245 2.34747,-1.06703 4.197,-1.9918 1.92066,-0.99589 2.34747,-1.70725 0.71136,-1.2093 3.62791,-1.2093 3.12997,0 5.12176,1.35157 2.06293,1.28044 2.06293,2.63202 0,0.85362 -0.85363,2.56088 -0.85362,1.63611 -1.77838,1.63611 -0.78249,0 -1.28044,-1.63611 -0.49795,-1.70726 -1.56498,-1.70726 -1.06704,0 -2.70316,0.42682 -1.63611,0.42681 -4.19699,1.77838 -2.48974,1.35158 -5.05062,3.34337 -2.48975,1.9918 -5.4063,5.61971 -2.91656,3.55678 -5.26403,8.10945 -2.13407,4.12586 -2.63202,6.18879 -0.49795,2.06293 -0.49795,6.90015 0,6.97128 1.20931,9.53216 1.2093,2.48974 4.55267,2.48974 7.11355,0 11.73736,-6.11765 2.27634,-3.05883 3.91246,-6.61561 1.63611,-3.55677 1.63611,-5.4063 0,-1.13817 -0.92476,-1.99179 -0.85362,-0.92476 -1.77839,-0.92476 -0.56908,0 -1.56498,0.78249 -0.92476,0.71135 -3.05882,0.71135 z"
         id="path4427"
         inkscape:connector-curvature="0" />
    </g>
    <g
       style="font-style:normal;font-variant:normal;font-weight:normal;font-stretch:normal;font-size:71.13552856px;line-height:125%;font-family:Purisa;-inkscape-font-specification:'Purisa, Normal';text-align:start;letter-spacing:0px;word-spacing:0px;writing-mode:lr-tb;text-anchor:start;fill:#000000;fill-opacity:1;stroke:none;stroke-width:1px;stroke-linecap:butt;stroke-linejoin:miter;stroke-opacity:1"
       id="text4352-1"
       transform="translate(-1.9976245,3.0350987)">
      <path
         d="m 310.82392,723.32711 q 2.41861,0 4.48154,-0.85363 2.13407,-0.85362 5.97538,-0.85362 3.05883,0 4.197,0.49795 1.2093,0.42681 1.2093,1.77838 0,1.20931 -1.63611,1.77839 -1.56498,0.49795 -7.68264,1.63612 -4.76608,0.92476 -7.96718,1.56498 l -7.18469,1.49385 0,5.69084 q 0,5.76198 0.49795,8.74967 l 0.49795,3.12996 4.55267,-0.49795 q 4.05473,-0.56908 8.32286,-0.56908 5.47744,0 5.47744,1.06703 0,0.9959 -3.34337,2.27634 -3.34337,1.28044 -8.394,2.2052 l -5.97538,1.06703 0.56908,11.31055 q 0.21341,4.26813 0.21341,6.82901 0,3.12997 -0.42681,4.26813 -0.35568,1.13817 -1.35158,1.13817 -0.64022,0 -1.42271,-0.28454 -1.06703,-0.28454 -1.35157,-1.35157 -0.28455,-1.06704 -0.28455,-4.48154 0,-3.27224 -1.28043,-12.66213 -1.20931,-9.46102 -1.20931,-19.20659 l 0,-12.0219 5.19289,-1.84953 q 5.26403,-1.84952 8.32286,-1.84952 z"
         id="path4424"
         inkscape:connector-curvature="0" />
    </g>
    <g
       style="font-style:normal;font-variant:normal;font-weight:normal;font-stretch:normal;font-size:71.13552856px;line-height:125%;font-family:Purisa;-inkscape-font-specification:'Purisa, Normal';text-align:start;letter-spacing:0px;word-spacing:0px;writing-mode:lr-tb;text-anchor:start;fill:#000000;fill-opacity:1;stroke:none;stroke-width:1px;stroke-linecap:butt;stroke-linejoin:miter;stroke-opacity:1"
       id="text4352-8"
       transform="translate(7.9195505,-1.8552563)">
      <path
         d="m 286.03946,817.71406 q 0,-2.13407 0.56908,-3.55678 0.64022,-1.49384 1.20931,-1.92066 0.56908,-0.49794 0.99589,-0.49794 0.78249,0 2.56088,-0.92477 1.77839,-0.99589 3.84132,-2.13406 2.13407,-1.13817 5.97539,-2.06293 3.84131,-0.9959 8.18058,-0.9959 6.47333,0 6.47333,2.06293 0,0.9959 -6.82901,2.2052 -5.54857,0.92476 -10.45692,2.70315 -4.90835,1.70725 -6.6156,3.34337 -1.06704,1.06703 -1.06704,3.05883 0,0.42681 0.0711,1.70725 0.14227,1.20931 0.42681,3.91246 0.28454,2.70315 0.49795,5.33516 0.42681,5.90425 1.20931,5.90425 0.2134,0 0.49794,-0.21341 1.20931,-0.71135 8.10945,-2.34747 6.97129,-1.63612 8.74967,-1.63612 2.13407,0 2.13407,1.77839 0,1.28044 -2.41861,2.27634 -2.41861,0.9959 -9.67443,2.84542 -5.33516,1.28044 -6.6156,1.92066 -1.20931,0.64022 -1.20931,1.99179 0,0.0711 0.14227,8.89194 l 0.21341,6.11766 3.62791,0 q 3.2011,0 8.10945,-1.28044 4.97949,-1.35157 8.25172,-3.12996 2.2052,-1.20931 2.9877,-1.20931 0.71135,0 1.42271,0.85363 0.71135,0.78249 0.71135,1.56498 0,2.48975 -7.75377,5.54857 -7.68264,2.98769 -15.08073,2.98769 -4.48154,0 -5.4063,-1.35157 -0.78249,-0.92476 -1.20931,-5.61971 -0.42681,-4.76608 -0.9959,-14.15597 -0.49794,-9.46102 -1.13816,-16.14776 -0.49795,-5.1929 -0.49795,-7.82491 z"
         id="path4421"
         inkscape:connector-curvature="0" />
    </g>
    <g
       style="font-style:normal;font-variant:normal;font-weight:normal;font-stretch:normal;font-size:71.13552856px;line-height:125%;font-family:Purisa;-inkscape-font-specification:'Purisa, Normal';text-align:start;letter-spacing:0px;word-spacing:0px;writing-mode:lr-tb;text-anchor:start;fill:#000000;fill-opacity:1;stroke:none;stroke-width:1px;stroke-linecap:butt;stroke-linejoin:miter;stroke-opacity:1"
       id="text4352-9"
       transform="translate(-5.4715445,-11.345798)">
      <path
         d="m 289.75608,901.4425 q 0,-0.9959 0.92476,-2.41861 0.92476,-1.42271 1.70725,-1.42271 0.92477,0 2.13407,-1.70725 1.13817,-1.70726 6.97128,-2.34747 7.46923,-0.71136 9.8167,-0.71136 2.9877,0 7.32696,0.78249 12.44872,2.13407 17.49934,6.33106 5.05063,4.12586 5.05063,12.51986 0,7.46923 -2.56088,14.15597 -2.48975,6.68674 -6.47334,11.16827 -3.98359,4.48154 -8.39399,7.46923 -4.4104,2.91656 -8.6074,3.91246 -1.77839,0.42681 -2.63201,1.35157 -0.85363,0.9959 -0.92476,1.84953 -0.0711,0.85362 -0.71136,1.49384 -0.56908,0.71136 -1.92066,0.71136 -2.2052,0 -2.2052,-0.85363 0,-0.49795 -0.56908,-0.85362 -0.56909,-0.35568 -1.28044,-0.56909 -0.64022,-0.2134 -1.20931,-0.92476 -0.56908,-0.71136 -0.56908,-1.84952 0,-1.92066 1.35157,-2.41861 1.35158,-0.49795 1.35158,-6.04652 0,-2.91656 -0.35568,-5.90425 -0.35568,-3.05883 -1.2093,-9.17648 -0.78249,-6.18879 -1.49385,-13.65803 l -1.13817,-12.30644 -2.56088,0.2134 q -1.63611,0.14228 -3.12996,1.20931 -1.49385,0.9959 -2.41861,1.92066 -0.92476,0.92476 -1.42271,0.92476 -0.49795,0 -1.42271,-0.9959 -0.92476,-1.06703 -0.92476,-1.84952 z m 17.00139,0.21341 q 0,2.2052 1.9918,16.71684 2.06293,14.51165 2.06293,18.92206 0,1.42271 -0.14228,2.84542 l -0.56908,3.62791 3.84132,0 q 6.33106,0 14.36938,-8.96308 4.55267,-5.12176 6.11765,-10.31465 1.63612,-5.19289 1.63612,-12.66212 0,-3.12997 -0.49795,-4.33927 -0.42681,-1.20931 -2.06293,-3.05883 -1.63612,-1.77839 -3.69905,-2.63201 -2.06293,-0.85363 -6.75787,-1.77839 -8.53627,-1.42271 -12.87553,-1.42271 -1.9918,0 -2.70315,0.49795 -0.71136,0.49795 -0.71136,2.56088 z"
         id="path4418"
         inkscape:connector-curvature="0" />
    </g>
    <g
       style="font-style:normal;font-variant:normal;font-weight:normal;font-stretch:normal;font-size:71.13552856px;line-height:125%;font-family:Purisa;-inkscape-font-specification:'Purisa, Normal';text-align:start;letter-spacing:0px;word-spacing:0px;writing-mode:lr-tb;text-anchor:start;fill:#000000;fill-opacity:1;stroke:none;stroke-width:1px;stroke-linecap:butt;stroke-linejoin:miter;stroke-opacity:1"
       id="text4352-11"
       transform="translate(-0.23138448,3.7818861)">
      <path
         d="m 329.08233,995.90718 q 0,0.85363 -1.2093,3.2011 -1.13817,2.34752 -3.41451,5.40632 -2.2052,3.0588 -4.97949,5.9042 -2.70315,2.7743 -6.33106,4.695 -3.62791,1.9206 -7.11355,1.9206 -8.6074,0 -13.94256,-10.9548 -0.71136,-1.4227 -0.71136,-9.67447 0,-14.86733 1.42271,-19.84681 1.77839,-6.54447 8.74967,-11.45282 6.97128,-4.97949 13.23121,-4.97949 3.27223,0 5.97538,2.13407 2.77429,2.06293 2.77429,4.62381 0,0.92476 -1.06703,0.92476 -0.78249,0 -1.63612,-0.49795 -0.85363,-0.49795 -1.28044,-1.28044 -0.71136,-1.56498 -2.2052,-1.56498 -3.69905,0 -8.96308,2.48974 -5.19289,2.48974 -7.96718,5.54857 -2.34747,2.56088 -3.55677,7.89605 -1.20931,5.33516 -1.20931,16.14776 0,5.1218 1.35158,8.3229 1.35157,3.2011 3.91245,5.1929 2.56088,1.9917 5.26403,1.9917 1.84952,0 5.19289,-1.5649 3.34337,-1.565 4.69495,-3.0589 l 3.62791,-3.6279 q 1.70725,-1.6361 3.55678,-4.19697 1.92066,-2.63202 3.05883,-4.197 1.2093,-1.56498 1.99179,-1.56498 0.78249,0 0.78249,2.06293 z"
         id="path4415"
         inkscape:connector-curvature="0" />
    </g>
    <path
       style="fill:none;fill-rule:evenodd;stroke:#ffffff;stroke-width:2.5;stroke-linecap:butt;stroke-linejoin:miter;stroke-opacity:1;stroke-miterlimit:4;stroke-dasharray:none"
       d="m 540,472.36203 0,560.00007"
       id="path4435"
       inkscape:connector-curvature="0"
       sodipodi:nodetypes="cc" />
    <path
       style="fill:none;fill-rule:evenodd;stroke:#ffffff;stroke-width:2.5;stroke-linecap:butt;stroke-linejoin:miter;stroke-miterlimit:4;stroke-dasharray:none;stroke-opacity:1"
       d="m 620,472.36202 0,560.00008"
       id="path4435-3"
       inkscape:connector-curvature="0"
       sodipodi:nodetypes="cc" />
    <path
       style="fill:none;fill-rule:evenodd;stroke:#ffffff;stroke-width:2.5;stroke-linecap:butt;stroke-linejoin:miter;stroke-miterlimit:4;stroke-dasharray:none;stroke-opacity:1"
       d="m 700,472.36212 0,559.99998"
       id="path4435-5"
       inkscape:connector-curvature="0"
       sodipodi:nodetypes="cc" />
    <path
       style="fill:none;fill-rule:evenodd;stroke:#feffff;stroke-width:2.5;stroke-linecap:butt;stroke-linejoin:miter;stroke-opacity:1;stroke-miterlimit:4;stroke-dasharray:none"
       d="m 460,552.36212 320,6e-5"
       id="path4458"
       inkscape:connector-curvature="0" />
    <path
       style="fill:none;fill-rule:evenodd;stroke:#feffff;stroke-width:2.5;stroke-linecap:butt;stroke-linejoin:miter;stroke-miterlimit:4;stroke-dasharray:none;stroke-opacity:1"
       d="m 460,632.36209 320,6e-5"
       id="path4458-3"
       inkscape:connector-curvature="0" />
    <path
       style="fill:none;fill-rule:evenodd;stroke:#feffff;stroke-width:2.5;stroke-linecap:butt;stroke-linejoin:miter;stroke-miterlimit:4;stroke-dasharray:none;stroke-opacity:1"
       d="m 460,712.36209 320,6e-5"
       id="path4458-6"
       inkscape:connector-curvature="0" />
    <path
       style="fill:none;fill-rule:evenodd;stroke:#feffff;stroke-width:2.5;stroke-linecap:butt;stroke-linejoin:miter;stroke-miterlimit:4;stroke-dasharray:none;stroke-opacity:1"
       d="m 460,792.36209 320,6e-5"
       id="path4458-1"
       inkscape:connector-curvature="0" />
    <path
       style="fill:none;fill-rule:evenodd;stroke:#feffff;stroke-width:2.5;stroke-linecap:butt;stroke-linejoin:miter;stroke-miterlimit:4;stroke-dasharray:none;stroke-opacity:1"
       d="m 460,872.36215 320,6e-5"
       id="path4458-5"
       inkscape:connector-curvature="0" />
    <path
       style="fill:none;fill-rule:evenodd;stroke:#feffff;stroke-width:2.5;stroke-linecap:butt;stroke-linejoin:miter;stroke-miterlimit:4;stroke-dasharray:none;stroke-opacity:1"
       d="m 460,952.36209 320,6e-5"
       id="path4458-59"
       inkscape:connector-curvature="0" />
    <g
       id="g4516"
       transform="translate(578.732,-62.138321)"
       inkscape:export-xdpi="90"
       inkscape:export-ydpi="90">
      <rect
         y="534.50037"
         x="-118.732"
         height="80"
         width="80"
         id="rect4499"
         style="fill:none;fill-opacity:1;stroke:none;stroke-width:1.41100001;stroke-miterlimit:4;stroke-dasharray:none;stroke-opacity:1" />
      <rect
         rx="7.1428571"
         ry="7.1428571"
         y="544.50037"
         x="-118.732"
         height="60"
         width="80"
         id="rect4512"
         style="fill:#000000;fill-opacity:1;stroke:none;stroke-width:3.09899998;stroke-miterlimit:4;stroke-dasharray:none;stroke-opacity:1" />
      <path
         sodipodi:nodetypes="csscsc"
         inkscape:connector-curvature="0"
         id="path4514"
         d="m -115,578.43359 -0.35714,18.92857 c -0.0246,1.30472 0.28363,3.35906 2.14285,3.39286 l 19.642861,0.35714 c 0,0 -17.463481,-0.16664 -19.464291,-2.76785 C -115.37364,595.30483 -115,578.43359 -115,578.43359 Z"
         style="fill:#ffffff;fill-opacity:1;fill-rule:evenodd;stroke:none;stroke-width:1px;stroke-linecap:butt;stroke-linejoin:miter;stroke-opacity:1" />
    </g>
    <path
       style="fill:none;fill-opacity:1;fill-rule:evenodd;stroke:#7a0000;stroke-width:6;stroke-linecap:butt;stroke-linejoin:miter;stroke-miterlimit:4;stroke-dasharray:none;stroke-opacity:1"
       d="m 910,383.79069 0,560.00008"
       id="path4521"
       inkscape:connector-curvature="0"
       sodipodi:nodetypes="cc"
       inkscape:export-xdpi="90"
       inkscape:export-ydpi="90" />
  </g>
</svg>
